<?xml version="1.0" ?><!DOCTYPE svg  PUBLIC '-//W3C//DTD SVG 1.1//EN'  'http://www.w3.org/Graphics/SVG/1.1/DTD/svg11.dtd'><svg enable-background="new 0 0 700 700" height="700px" id="Layer_1" version="1.1" viewBox="0 0 700 700" width="700px" xml:space="preserve" xmlns="http://www.w3.org/2000/svg" xmlns:xlink="http://www.w3.org/1999/xlink"><circle cx="350" cy="350" fill="#4A97CC" r="350"/><path d="M385.922,570.323l0.009,0.012l0.413-0.413c0.01-0.01,0.021-0.019,0.028-0.027h-0.001l220.084-220.083  L386.748,130.107c0.001-0.001,0.001-0.001,0.001-0.002c-0.019-0.018-0.037-0.034-0.056-0.053l-0.262-0.261l-0.007,0.007  c-19.16-18.82-49.943-18.724-68.975,0.307s-19.128,49.815-0.309,68.976l-0.009,0.009l0.316,0.314l102.493,102.491l-277.519,0.001  v0.064c-27,0.02-48.882,21.912-48.882,48.916c0,27.006,21.882,48.898,48.882,48.918v0.102l275.353,0.001L317.075,500.598  c-0.001-0.001-0.001-0.001-0.001-0.002c-0.021,0.02-0.036,0.038-0.055,0.057l-0.387,0.386l0.01,0.01  c-18.693,19.17-18.559,49.859,0.431,68.849C336.062,588.884,366.752,589.02,385.922,570.323z" fill="#FFFFFF"/></svg>