<?xml version="1.0" ?><svg id="Слой_1" style="enable-background:new 0 0 300 300;" version="1.1" viewBox="0 0 300 300" xml:space="preserve" xmlns="http://www.w3.org/2000/svg" xmlns:xlink="http://www.w3.org/1999/xlink"><g><path d="M74.779,243.122h6.766V141.959h-2.84c-4.433,0-8.241,4.288-8.67,9.761l-3.922,79.499   c-0.275,3.515,0.83,6.945,2.953,9.241C70.653,242.176,72.682,243.122,74.779,243.122z" style="fill:#333333;"/><path d="M221.291,141.959h-2.84v101.163h6.766c2.097,0,4.126-0.945,5.713-2.661   c2.123-2.296,3.228-5.726,2.958-9.176l-3.93-79.63C229.533,146.247,225.724,141.959,221.291,141.959z" style="fill:#333333;"/><path d="M86.063,253.236c0,21.172,37.331,22.842,38.615,22.892c9.556,0,17.834-0.027,26.11-0.054   c7.484-0.024,14.967-0.049,23.391-0.054c2.196-0.001,4.336-0.144,6.359-0.424c10.041-1.389,33.396-6.348,33.396-22.36v-138.51   c-2.33,1.154-4.943,1.82-7.714,1.82H93.778c-2.771,0-5.384-0.666-7.715-1.82V253.236z M113.433,131.154h15.206   c1.248,0,2.259,1.011,2.259,2.259v51.017h38.2v-51.017c0-1.248,1.011-2.259,2.259-2.259h15.206c1.248,0,2.259,1.011,2.259,2.259   v51.017h0.188c9.63,0,17.465,7.835,17.465,17.465v28.963c0,9.63-7.835,17.465-17.465,17.465h-78.024   c-9.63,0-17.465-7.835-17.465-17.465v-28.963c0-9.63,7.835-17.465,17.465-17.465h0.188v-51.017   C111.174,132.165,112.185,131.154,113.433,131.154z" style="fill:#333333;"/><path d="M130.898,205.383c0,5.438-4.424,9.863-9.862,9.863s-9.863-4.425-9.863-9.863v-16.435h-0.188   c-7.14,0-12.947,5.808-12.947,12.947v28.963c0,7.14,5.808,12.947,12.947,12.947h78.024c7.14,0,12.947-5.808,12.947-12.947v-28.963   c0-7.14-5.808-12.947-12.947-12.947h-0.188v16.435c0,5.438-4.424,9.863-9.862,9.863s-9.863-4.425-9.863-9.863v-16.435h-38.2   V205.383z" style="fill:#333333;"/><path d="M166.971,23.873h-33.944c-3.055,0-5.54,2.057-5.54,4.586v10.244h6.159v-5.181   c0-2.187,1.779-3.966,3.965-3.966h24.928c2.101,0,3.811,1.71,3.811,3.811v5.336h6.161V28.458   C172.511,25.929,170.025,23.873,166.971,23.873z" style="fill:#333333;"/><path d="M93.778,112.027H206.22c7.139,0,12.947-5.808,12.947-12.947V69.259   c0-13.821-10.52-25.227-23.973-26.641v27.23c0,7.317-4.522,13.27-10.082,13.27h-26.243v9.434c0,4.89-3.979,8.869-8.87,8.869   c-4.89,0-8.869-3.979-8.869-8.869v-9.434h-26.243c-5.56,0-10.083-5.953-10.083-13.27v-27.23   c-13.452,1.414-23.972,12.82-23.972,26.64V99.08C80.83,106.219,86.638,112.027,93.778,112.027z" style="fill:#333333;"/><path d="M109.321,42.467v27.382c0,4.744,2.549,8.752,5.565,8.752h26.243V67.487   c0-1.248,1.011-2.259,2.259-2.259h13.221c1.248,0,2.259,1.011,2.259,2.259v11.114h26.243c3.016,0,5.564-4.008,5.564-8.752V42.467   H109.321z" style="fill:#333333;"/><rect height="59.443" style="fill:#333333;" width="10.688" x="115.692" y="135.672"/><path d="M121.037,210.727c2.947,0,5.344-2.397,5.344-5.345v-5.75h-10.688v5.75   C115.692,208.33,118.089,210.727,121.037,210.727z" style="fill:#333333;"/><rect height="59.443" style="fill:#333333;" width="10.688" x="173.616" y="135.672"/><path d="M178.961,210.727c2.947,0,5.344-2.397,5.344-5.345v-5.75h-10.688v5.75   C173.616,208.33,176.014,210.727,178.961,210.727z" style="fill:#333333;"/><path d="M149.998,96.904c2.399,0,4.352-1.952,4.352-4.351v-4.705h-8.703v4.705   C145.647,94.952,147.599,96.904,149.998,96.904z" style="fill:#333333;"/><rect height="13.584" style="fill:#333333;" width="8.703" x="145.647" y="69.746"/></g></svg>