<?xml version="1.0" encoding="UTF-8" standalone="no"?>
<svg width="34px" height="34px" viewBox="0 0  34" version="1.1" xmlns="http://www.w3.org/2000/svg" xmlns:xlink="http://www.w3.org/1999/xlink">
    <!-- Generator: Sketch 3.7.1 (28215) - http://www.bohemiancoding.com/sketch -->
    <title>social-icons</title>
    <desc>Created with Sketch.</desc>
    <defs></defs>
    <g id="Page-1" stroke="none" stroke-width="1" fill="none" fill-rule="evenodd">
        <g id="example-mockup" transform="translate(-952.000000, -311.000000)" fill="#000000">
            <g id="social-icons" transform="translate(951.000000, 310.000000)">
                <g id="Group-4">
                    <path d="M17.0845635,0.485828614 C8.0094369,0.485828614 0.651867409,7.8433981 0.651867409,16.9185247 C0.651867409,25.9954766 8.0094369,33.3512209 17.0845635,33.3512209 C26.1606028,33.3512209 33.5172597,25.9954766 33.5172597,16.9185247 C33.5172597,7.8433981 26.1606028,0.485828614 17.0845635,0.485828614 L17.0845635,0.485828614 Z M20.6054644,16.9249131 L18.3020031,16.9249131 L18.3020031,25.1348728 L14.8897044,25.1348728 L14.8897044,16.9249131 L13.26706,16.9249131 L13.26706,14.0245961 L14.8897044,14.0245961 L14.8897044,12.1473298 C14.8897044,10.8030356 15.5276281,8.7030893 18.3330323,8.7030893 L20.860999,8.71312816 L20.860999,11.5285712 L19.026626,11.5285712 C18.7281982,11.5285712 18.3029157,11.6773288 18.3029157,12.318903 L18.3029157,14.0236835 L20.9048049,14.0236835 L20.6054644,16.9249131 L20.6054644,16.9249131 Z" id="Shape"></path>
                </g>
            </g>
        </g>
    </g>
</svg>