<?xml version="1.0" encoding="UTF-8" standalone="no"?>
<svg width="34px" height="34px" viewBox="0 0  34" version="1.1" xmlns="http://www.w3.org/2000/svg" xmlns:xlink="http://www.w3.org/1999/xlink">
    <!-- Generator: Sketch 3.7.1 (28215) - http://www.bohemiancoding.com/sketch -->
    <title>social-icons</title>
    <desc>Created with Sketch.</desc>
    <defs></defs>
    <g id="Page-1" stroke="none" stroke-width="1" fill="none" fill-rule="evenodd">
        <g id="example-mockup" transform="translate(-952.000000, -311.000000)" fill="#000000">
            <g id="social-icons" transform="translate(951.000000, 310.000000)">
                <g id="Group-2">
                    <ellipse id="Oval" cx="16.7992089" cy="17.0910106" rx="3.29091982" ry="3.188706"></ellipse>
                    <path d="M21.8925598,17.2698847 C21.8925598,19.9940655 19.611914,22.2035266 16.7992089,22.2035266 C13.9874163,22.2035266 11.7058579,19.9940655 11.7058579,17.2698847 C11.7058579,16.7807186 11.780693,16.309805 11.9166739,15.8635322 L10.4126706,15.8635322 L10.4126706,22.7848677 C10.4126706,23.1435287 10.7056227,23.4346555 11.0633711,23.4346555 L22.4720756,23.4346555 C22.8307366,23.4346555 23.1227761,23.1435287 23.1227761,22.7848677 L23.1227761,15.8635322 L21.6817438,15.8635322 C21.8186373,16.3088923 21.8925598,16.779806 21.8925598,17.2698847 L21.8925598,17.2698847 Z" id="Shape"></path>
                    <path d="M20.5272753,13.9953921 L22.3789881,13.9953921 C22.7841928,13.9953921 23.1163877,13.6631972 23.1163877,13.2570798 L23.1163877,11.4920663 C23.1163877,11.0859489 22.7841928,10.753754 22.3789881,10.753754 L20.5272753,10.753754 C20.1211579,10.753754 19.788963,11.0859489 19.788963,11.4920663 L19.788963,13.2570798 C19.788963,13.6641099 20.1202453,13.9953921 20.5272753,13.9953921 L20.5272753,13.9953921 Z" id="Shape"></path>
                    <path d="M16.7836943,0.692994116 C7.707655,0.692994116 0.35099813,8.05056361 0.35099813,17.1256903 C0.35099813,26.2026421 7.707655,33.5583864 16.7836943,33.5583864 C25.8588209,33.5583864 33.2163904,26.2026421 33.2163904,17.1256903 C33.2163904,8.05147623 25.8579083,0.692994116 16.7836943,0.692994116 L16.7836943,0.692994116 Z M24.9754015,23.2156259 C24.9754015,24.3719197 24.0290111,25.3173975 22.8727173,25.3173975 L10.6955839,25.3173975 C9.53837745,25.3173975 8.59198703,24.3719197 8.59198703,23.2156259 L8.59198703,11.0375798 C8.59198703,9.88037343 9.53837745,8.93489564 10.6955839,8.93489564 L22.8727173,8.93489564 C24.0290111,8.93489564 24.9754015,9.88128606 24.9754015,11.0375798 L24.9754015,23.2156259 L24.9754015,23.2156259 Z" id="Shape"></path>
                </g>
            </g>
        </g>
    </g>
</svg>